<svg version="1.2" xmlns="http://www.w3.org/2000/svg" viewBox="0 0 1500 1000" width="1500" height="1000">
	<title>3179873-ai</title>
	<defs>
		<clipPath clipPathUnits="userSpaceOnUse" id="cp1">
			<path d="m1500 1000h-1500v-1000h1500z"/>
		</clipPath>
		<radialGradient id="g1" cx="0" cy="0" r="1" gradientUnits="userSpaceOnUse" gradientTransform="matrix(829.829,0,0,829.829,750,1000)">
			<stop offset="0" stop-color="#6929f2" stop-opacity="1"/>
			<stop offset="1" stop-color="#210240" stop-opacity="0"/>
		</radialGradient>
		<linearGradient id="g2" x2="1" gradientUnits="userSpaceOnUse" gradientTransform="matrix(0,-118.253,6.093,0,-1086.424,627.233)">
			<stop offset="0" stop-color="#636af2" stop-opacity="1"/>
			<stop offset="1" stop-color="#210240" stop-opacity="0"/>
		</linearGradient>
		<linearGradient id="g3" x2="1" gradientUnits="userSpaceOnUse" gradientTransform="matrix(0,-118.253,6.093,0,-699.023,222.365)">
			<stop offset="0" stop-color="#636af2" stop-opacity="1"/>
			<stop offset="1" stop-color="#210240" stop-opacity="0"/>
		</linearGradient>
		<linearGradient id="g4" x2="1" gradientUnits="userSpaceOnUse" gradientTransform="matrix(0,-118.253,6.093,0,-394.356,537.797)">
			<stop offset="0" stop-color="#636af2" stop-opacity="1"/>
			<stop offset="1" stop-color="#210240" stop-opacity="0"/>
		</linearGradient>
		<linearGradient id="g5" x2="1" gradientUnits="userSpaceOnUse" gradientTransform="matrix(0,-54.116,6.093,0,173.446,507.088)">
			<stop offset=".003" stop-color="#f24ba7" stop-opacity="1"/>
			<stop offset="1" stop-color="#210240" stop-opacity="0"/>
		</linearGradient>
		<linearGradient id="g6" x2="1" gradientUnits="userSpaceOnUse" gradientTransform="matrix(0,-54.116,6.093,0,-89.604,297.318)">
			<stop offset=".003" stop-color="#f24ba7" stop-opacity="1"/>
			<stop offset="1" stop-color="#210240" stop-opacity="0"/>
		</linearGradient>
		<linearGradient id="g7" x2="1" gradientUnits="userSpaceOnUse" gradientTransform="matrix(0,-54.116,6.093,0,163.335,103.97)">
			<stop offset=".003" stop-color="#f24ba7" stop-opacity="1"/>
			<stop offset="1" stop-color="#210240" stop-opacity="0"/>
		</linearGradient>
		<linearGradient id="g8" x2="1" gradientUnits="userSpaceOnUse" gradientTransform="matrix(0,-54.116,6.093,0,437.278,169.378)">
			<stop offset=".003" stop-color="#f24ba7" stop-opacity="1"/>
			<stop offset="1" stop-color="#210240" stop-opacity="0"/>
		</linearGradient>
		<linearGradient id="g9" x2="1" gradientUnits="userSpaceOnUse" gradientTransform="matrix(0,-54.116,6.093,0,984.224,109.513)">
			<stop offset=".003" stop-color="#f24ba7" stop-opacity="1"/>
			<stop offset="1" stop-color="#210240" stop-opacity="0"/>
		</linearGradient>
		<linearGradient id="g10" x2="1" gradientUnits="userSpaceOnUse" gradientTransform="matrix(0,-54.116,6.093,0,493.124,864.82)">
			<stop offset=".003" stop-color="#f24ba7" stop-opacity="1"/>
			<stop offset="1" stop-color="#210240" stop-opacity="0"/>
		</linearGradient>
		<linearGradient id="g11" x2="1" gradientUnits="userSpaceOnUse" gradientTransform="matrix(0,-54.116,6.093,0,749.641,305.713)">
			<stop offset=".003" stop-color="#f24ba7" stop-opacity="1"/>
			<stop offset="1" stop-color="#210240" stop-opacity="0"/>
		</linearGradient>
		<linearGradient id="g12" x2="1" gradientUnits="userSpaceOnUse" gradientTransform="matrix(0,-54.116,6.093,0,967.167,561.097)">
			<stop offset=".003" stop-color="#f24ba7" stop-opacity="1"/>
			<stop offset="1" stop-color="#210240" stop-opacity="0"/>
		</linearGradient>
		<linearGradient id="g13" x2="1" gradientUnits="userSpaceOnUse" gradientTransform="matrix(0,-54.116,6.093,0,-41.947,798.211)">
			<stop offset=".003" stop-color="#f24ba7" stop-opacity="1"/>
			<stop offset="1" stop-color="#210240" stop-opacity="0"/>
		</linearGradient>
		<linearGradient id="g14" x2="1" gradientUnits="userSpaceOnUse" gradientTransform="matrix(0,-118.253,6.093,0,-666.086,645.427)">
			<stop offset="0" stop-color="#636af2" stop-opacity="1"/>
			<stop offset="1" stop-color="#210240" stop-opacity="0"/>
		</linearGradient>
		<linearGradient id="g15" x2="1" gradientUnits="userSpaceOnUse" gradientTransform="matrix(0,-118.253,6.093,0,-1048.87,172.978)">
			<stop offset="0" stop-color="#636af2" stop-opacity="1"/>
			<stop offset="1" stop-color="#210240" stop-opacity="0"/>
		</linearGradient>
		<linearGradient id="g16" x2="1" gradientUnits="userSpaceOnUse" gradientTransform="matrix(0,-118.253,6.093,0,-1218.884,758.049)">
			<stop offset="0" stop-color="#636af2" stop-opacity="1"/>
			<stop offset="1" stop-color="#210240" stop-opacity="0"/>
		</linearGradient>
		<linearGradient id="g17" x2="1" gradientUnits="userSpaceOnUse" gradientTransform="matrix(0,-118.253,6.093,0,110.318,743.951)">
			<stop offset="0" stop-color="#636af2" stop-opacity="1"/>
			<stop offset="1" stop-color="#210240" stop-opacity="0"/>
		</linearGradient>
		<linearGradient id="g18" x2="1" gradientUnits="userSpaceOnUse" gradientTransform="matrix(0,-118.253,6.093,0,176.733,968.08)">
			<stop offset=".003" stop-color="#f24ba7" stop-opacity="1"/>
			<stop offset="1" stop-color="#210240" stop-opacity="0"/>
		</linearGradient>
		<linearGradient id="g19" x2="1" gradientUnits="userSpaceOnUse" gradientTransform="matrix(0,-118.253,6.093,0,-1142.863,963.76)">
			<stop offset=".003" stop-color="#f24ba7" stop-opacity="1"/>
			<stop offset="1" stop-color="#210240" stop-opacity="0"/>
		</linearGradient>
		<linearGradient id="g20" x2="1" gradientUnits="userSpaceOnUse" gradientTransform="matrix(0,-118.253,6.093,0,-257.244,736.402)">
			<stop offset=".003" stop-color="#f24ba7" stop-opacity="1"/>
			<stop offset="1" stop-color="#210240" stop-opacity="0"/>
		</linearGradient>
		<linearGradient id="g21" x2="1" gradientUnits="userSpaceOnUse" gradientTransform="matrix(0,-118.253,6.093,0,-139.186,357.75)">
			<stop offset="0" stop-color="#636af2" stop-opacity="1"/>
			<stop offset="1" stop-color="#210240" stop-opacity="0"/>
		</linearGradient>
		<linearGradient id="g22" x2="1" gradientUnits="userSpaceOnUse" gradientTransform="matrix(0,-118.253,6.093,0,-431.083,161.832)">
			<stop offset="0" stop-color="#636af2" stop-opacity="1"/>
			<stop offset="1" stop-color="#210240" stop-opacity="0"/>
		</linearGradient>
		<linearGradient id="g23" x2="1" gradientUnits="userSpaceOnUse" gradientTransform="matrix(0,-118.253,6.093,0,180.104,156.957)">
			<stop offset="0" stop-color="#636af2" stop-opacity="1"/>
			<stop offset="1" stop-color="#210240" stop-opacity="0"/>
		</linearGradient>
		<linearGradient id="g24" x2="1" gradientUnits="userSpaceOnUse" gradientTransform="matrix(0,-118.253,6.093,0,-836.843,916.352)">
			<stop offset="0" stop-color="#636af2" stop-opacity="1"/>
			<stop offset="1" stop-color="#210240" stop-opacity="0"/>
		</linearGradient>
		<linearGradient id="g25" x2="1" gradientUnits="userSpaceOnUse" gradientTransform="matrix(0,-118.253,6.093,0,80.252,309.312)">
			<stop offset="0" stop-color="#636af2" stop-opacity="1"/>
			<stop offset="1" stop-color="#210240" stop-opacity="0"/>
		</linearGradient>
		<linearGradient id="g26" x2="1" gradientUnits="userSpaceOnUse" gradientTransform="matrix(0,-118.253,6.093,0,-135.811,916.352)">
			<stop offset="0" stop-color="#636af2" stop-opacity="1"/>
			<stop offset="1" stop-color="#210240" stop-opacity="0"/>
		</linearGradient>
		<radialGradient id="g27" cx="0" cy="0" r="1" gradientUnits="userSpaceOnUse" gradientTransform="matrix(48.464,0,0,48.464,829.649,727.992)">
			<stop offset="0" stop-color="#6929f2" stop-opacity="1"/>
			<stop offset="1" stop-color="#210240" stop-opacity="0"/>
		</radialGradient>
		<radialGradient id="g28" cx="0" cy="0" r="1" gradientUnits="userSpaceOnUse" gradientTransform="matrix(85.07,0,0,85.07,587.741,645.358)">
			<stop offset="0" stop-color="#6929f2" stop-opacity="1"/>
			<stop offset="1" stop-color="#210240" stop-opacity="0"/>
		</radialGradient>
		<radialGradient id="g29" cx="0" cy="0" r="1" gradientUnits="userSpaceOnUse" gradientTransform="matrix(85.07,0,0,85.07,1383.076,747.534)">
			<stop offset="0" stop-color="#6929f2" stop-opacity="1"/>
			<stop offset="1" stop-color="#210240" stop-opacity="0"/>
		</radialGradient>
		<radialGradient id="g30" cx="0" cy="0" r="1" gradientUnits="userSpaceOnUse" gradientTransform="matrix(85.07,0,0,85.07,247.07,662.465)">
			<stop offset="0" stop-color="#6929f2" stop-opacity="1"/>
			<stop offset="1" stop-color="#210240" stop-opacity="0"/>
		</radialGradient>
		<radialGradient id="g31" cx="0" cy="0" r="1" gradientUnits="userSpaceOnUse" gradientTransform="matrix(48.464,0,0,48.464,1217.643,883.318)">
			<stop offset="0" stop-color="#6929f2" stop-opacity="1"/>
			<stop offset="1" stop-color="#210240" stop-opacity="0"/>
		</radialGradient>
		<radialGradient id="g32" cx="0" cy="0" r="1" gradientUnits="userSpaceOnUse" gradientTransform="matrix(48.464,0,0,48.464,295.534,894.262)">
			<stop offset="0" stop-color="#6929f2" stop-opacity="1"/>
			<stop offset="1" stop-color="#210240" stop-opacity="0"/>
		</radialGradient>
	</defs>
	<style>
		.s0 { fill: #000000 } 
		.s1 { opacity: .6;fill: url(#g1) } 
		.s2 { fill: url(#g2) } 
		.s3 { fill: url(#g3) } 
		.s4 { fill: url(#g4) } 
		.s5 { opacity: .7;fill: url(#g5) } 
		.s6 { opacity: .1;fill: url(#g6) } 
		.s7 { opacity: .1;fill: url(#g7) } 
		.s8 { opacity: .1;fill: url(#g8) } 
		.s9 { opacity: .1;fill: url(#g9) } 
		.s10 { opacity: .7;fill: url(#g10) } 
		.s11 { opacity: .7;fill: url(#g11) } 
		.s12 { opacity: .7;fill: url(#g12) } 
		.s13 { opacity: .7;fill: url(#g13) } 
		.s14 { opacity: .2;fill: url(#g14) } 
		.s15 { opacity: .1;fill: url(#g15) } 
		.s16 { opacity: .2;fill: url(#g16) } 
		.s17 { opacity: .2;fill: url(#g17) } 
		.s18 { opacity: .7;fill: url(#g18) } 
		.s19 { opacity: .7;fill: url(#g19) } 
		.s20 { opacity: .7;fill: url(#g20) } 
		.s21 { opacity: .2;fill: url(#g21) } 
		.s22 { opacity: .1;fill: url(#g22) } 
		.s23 { opacity: .1;fill: url(#g23) } 
		.s24 { fill: url(#g24) } 
		.s25 { fill: url(#g25) } 
		.s26 { fill: url(#g26) } 
		.s27 { fill: #f24ba7 } 
		.s28 { opacity: .7;fill: #f24ba7 } 
		.s29 { opacity: .2;fill: #f24ba7 } 
		.s30 { opacity: .2;fill: #636af2 } 
		.s31 { opacity: .7;fill: none;stroke: #f24ba7;stroke-miterlimit:10;stroke-width: 2 } 
		.s32 { opacity: .8;fill: none;stroke: #636af2;stroke-miterlimit:10;stroke-width: 2 } 
		.s33 { opacity: .8;fill: #636af2 } 
		.s34 { opacity: .7;fill: url(#g27) } 
		.s35 { opacity: .2;fill: url(#g28) } 
		.s36 { opacity: .2;fill: url(#g29) } 
		.s37 { opacity: .1;fill: url(#g30) } 
		.s38 { opacity: .7;fill: url(#g31) } 
		.s39 { fill: #636af2 } 
		.s40 { opacity: .3;fill: #636af2 } 
		.s41 { opacity: .1;fill: #636af2 } 
		.s42 { opacity: .7;fill: url(#g32) } 
		.s43 { opacity: .3;fill: #f24ba7 } 
	</style>
	<g id="BACKGROUND">
		<path id="&lt;Path&gt;" class="s0" d="m1500 1000h-1500v-1000h1500z"/>
	</g>
	<g id="OBJECTS">
		<g id="&lt;Group&gt;">
			<g id="&lt;Clip Group&gt;" clip-path="url(#cp1)">
				<path id="&lt;Path&gt;" class="s1" d="m1602.2 1000c0-262.7-381.6-475.6-852.2-475.6-470.6 0-852.2 212.9-852.2 475.6 0 262.7 381.6 475.6 852.2 475.6 470.6 0 852.2-212.9 852.2-475.6z"/>
			</g>
			<g id="&lt;Group&gt;">
				<path id="&lt;Path&gt;" class="s2" d="m183 500c-1.9 0-3.4 1.5-3.4 3.4v124c0 1.9 1.5 3.4 3.4 3.4 1.8 0 3.3-1.5 3.3-3.4v-124c0-1.9-1.5-3.4-3.3-3.4z"/>
				<path id="&lt;Path&gt;" class="s3" d="m570.4 95.1c-1.9 0-3.4 1.5-3.4 3.4v124.1c0 1.8 1.5 3.3 3.4 3.3 1.8 0 3.3-1.5 3.3-3.3v-124.1c0-1.9-1.5-3.4-3.3-3.4z"/>
				<path id="&lt;Path&gt;" class="s4" d="m875 410.6c-1.8 0-3.3 1.5-3.3 3.3v124.1c0 1.9 1.5 3.4 3.3 3.4 1.9 0 3.4-1.5 3.4-3.4v-124.1c0-1.8-1.5-3.3-3.4-3.3z"/>
				<path id="&lt;Path&gt;" class="s5" d="m439.3 448.9c-1.9 0-3.4 1.5-3.4 3.3v53.2c0 1.8 1.5 3.3 3.4 3.3 1.8 0 3.4-1.5 3.4-3.3v-53.2c0-1.8-1.6-3.3-3.4-3.3z"/>
				<path id="&lt;Path&gt;" class="s6" d="m176.2 239.1c-1.8 0-3.3 1.5-3.3 3.4v53.1c0 1.8 1.5 3.4 3.3 3.4 1.9 0 3.4-1.6 3.4-3.4v-53.1c0-1.9-1.5-3.4-3.4-3.4z"/>
				<path id="&lt;Path&gt;" class="s7" d="m429.2 45.7c-1.9 0-3.4 1.6-3.4 3.4v53.1c0 1.9 1.5 3.4 3.4 3.4 1.8 0 3.3-1.5 3.3-3.4v-53.1c0-1.8-1.5-3.4-3.3-3.4z"/>
				<path id="&lt;Path&gt;" class="s8" d="m703.1 111.2c-1.9 0-3.4 1.5-3.4 3.3v53.1c0 1.9 1.5 3.4 3.4 3.4 1.9 0 3.4-1.5 3.4-3.4v-53.1c0-1.8-1.5-3.3-3.4-3.3z"/>
				<path id="&lt;Path&gt;" class="s9" d="m1250.1 51.3c-1.9 0-3.4 1.5-3.4 3.4v53.1c0 1.8 1.5 3.4 3.4 3.4 1.8 0 3.3-1.6 3.3-3.4v-53.1c0-1.9-1.5-3.4-3.3-3.4z"/>
				<path id="&lt;Path&gt;" class="s10" d="m759 806.6c-1.9 0-3.4 1.5-3.4 3.4v53.1c0 1.9 1.5 3.4 3.4 3.4 1.8 0 3.3-1.5 3.3-3.4v-53.1c0-1.9-1.5-3.4-3.3-3.4z"/>
				<path id="&lt;Path&gt;" class="s11" d="m1015.5 247.5c-1.9 0-3.4 1.5-3.4 3.4v53.1c0 1.8 1.5 3.4 3.4 3.4 1.8 0 3.4-1.6 3.4-3.4v-53.1c0-1.9-1.6-3.4-3.4-3.4z"/>
				<path id="&lt;Path&gt;" class="s12" d="m1233 502.9c-1.9 0-3.4 1.5-3.4 3.3v53.2c0 1.8 1.5 3.3 3.4 3.3 1.9 0 3.4-1.5 3.4-3.3v-53.2c0-1.8-1.5-3.3-3.4-3.3z"/>
				<path id="&lt;Path&gt;" class="s13" d="m223.9 740c-1.9 0-3.4 1.5-3.4 3.4v53.1c0 1.8 1.5 3.4 3.4 3.4 1.9 0 3.4-1.6 3.4-3.4v-53.1c0-1.9-1.5-3.4-3.4-3.4z"/>
				<path id="&lt;Path&gt;" class="s14" d="m603.3 518.2c-1.9 0-3.4 1.5-3.4 3.4v124c0 1.9 1.5 3.4 3.4 3.4 1.8 0 3.3-1.5 3.3-3.4v-124c0-1.9-1.5-3.4-3.3-3.4z"/>
				<path id="&lt;Path&gt;" class="s15" d="m220.5 45.7c-1.8 0-3.3 1.6-3.3 3.4v124.1c0 1.9 1.5 3.4 3.3 3.4 1.9 0 3.4-1.5 3.4-3.4v-124.1c0-1.8-1.5-3.4-3.4-3.4z"/>
				<path id="&lt;Path&gt;" class="s16" d="m50.5 630.8c-1.9 0-3.4 1.5-3.4 3.4v124.1c0 1.8 1.5 3.3 3.4 3.3 1.9 0 3.4-1.5 3.4-3.3v-124.1c0-1.9-1.5-3.4-3.4-3.4z"/>
				<path id="&lt;Path&gt;" class="s17" d="m1379.7 616.7c-1.9 0-3.4 1.5-3.4 3.4v124.1c0 1.8 1.5 3.3 3.4 3.3 1.9 0 3.4-1.5 3.4-3.3v-124.1c0-1.9-1.5-3.4-3.4-3.4z"/>
				<path id="&lt;Path&gt;" class="s18" d="m1446.1 840.8c-1.8 0-3.3 1.6-3.3 3.4v124.1c0 1.9 1.5 3.4 3.3 3.4 1.9 0 3.4-1.5 3.4-3.4v-124.1c0-1.8-1.5-3.4-3.4-3.4z"/>
				<path id="&lt;Path&gt;" class="s19" d="m126.5 836.5c-1.8 0-3.3 1.5-3.3 3.4v124.1c0 1.8 1.5 3.3 3.3 3.3 1.9 0 3.4-1.5 3.4-3.3v-124.1c0-1.9-1.5-3.4-3.4-3.4z"/>
				<path id="&lt;Path&gt;" class="s20" d="m1012.1 609.2c-1.9 0-3.4 1.5-3.4 3.3v124.1c0 1.9 1.5 3.4 3.4 3.4 1.9 0 3.4-1.5 3.4-3.4v-124.1c0-1.8-1.5-3.3-3.4-3.3z"/>
				<path id="&lt;Path&gt;" class="s21" d="m1130.2 230.5c-1.9 0-3.4 1.5-3.4 3.4v124.1c0 1.8 1.5 3.3 3.4 3.3 1.9 0 3.4-1.5 3.4-3.3v-124.1c0-1.9-1.5-3.4-3.4-3.4z"/>
				<path id="&lt;Path&gt;" class="s22" d="m838.3 34.6c-1.9 0-3.4 1.5-3.4 3.4v124c0 1.9 1.5 3.4 3.4 3.4 1.8 0 3.3-1.5 3.3-3.4v-124c0-1.9-1.5-3.4-3.3-3.4z"/>
				<path id="&lt;Path&gt;" class="s23" d="m1449.5 29.7c-1.9 0-3.4 1.5-3.4 3.4v124.1c0 1.8 1.5 3.3 3.4 3.3 1.9 0 3.4-1.5 3.4-3.3v-124.1c0-1.9-1.5-3.4-3.4-3.4z"/>
				<path id="&lt;Path&gt;" class="s24" d="m432.5 789.1c-1.8 0-3.3 1.5-3.3 3.4v124.1c0 1.8 1.5 3.3 3.3 3.3 1.9 0 3.4-1.5 3.4-3.3v-124.1c0-1.9-1.5-3.4-3.4-3.4z"/>
				<path id="&lt;Path&gt;" class="s25" d="m1349.6 182.1c-1.8 0-3.3 1.5-3.3 3.3v124.1c0 1.9 1.5 3.4 3.3 3.4 1.9 0 3.4-1.5 3.4-3.4v-124.1c0-1.8-1.5-3.3-3.4-3.3z"/>
				<path id="&lt;Path&gt;" class="s26" d="m1133.6 789.1c-1.9 0-3.4 1.5-3.4 3.4v124.1c0 1.8 1.5 3.3 3.4 3.3 1.8 0 3.3-1.5 3.3-3.3v-124.1c0-1.9-1.5-3.4-3.3-3.4z"/>
			</g>
			<g id="&lt;Group&gt;">
				<path id="&lt;Path&gt;" class="s27" d="m378.7 716h-23.9v24h23.9z"/>
				<path id="&lt;Path&gt;" class="s28" d="m135.1 420.1h-23.9v24h23.9z"/>
				<path id="&lt;Path&gt;" class="s27" d="m135.1 466.8h-23.9v24h23.9z"/>
				<path id="&lt;Path&gt;" class="s27" d="m727.1 464h-24v24h24z"/>
				<path id="&lt;Path&gt;" class="s29" d="m538.3 743.7h-11.9v12h11.9z"/>
				<path id="&lt;Path&gt;" class="s30" d="m690 660.2h-12v12h12z"/>
				<path id="&lt;Path&gt;" class="s30" d="m805.2 225.2h-12v12h12z"/>
				<path id="&lt;Path&gt;" class="s30" d="m805.2 271.4h-12v12h12z"/>
				<path id="&lt;Path&gt;" class="s30" d="m1286.3 176.1h-12v12h12z"/>
				<path id="&lt;Path&gt;" class="s30" d="m1286.3 208.7h-12v12h12z"/>
				<path id="&lt;Path&gt;" class="s30" d="m1286.3 333.8h-12v12h12z"/>
				<path id="&lt;Path&gt;" class="s30" d="m1448.8 247.5h-12v12h12z"/>
				<path id="&lt;Path&gt;" class="s30" d="m1448.8 327.8h-12v12h12z"/>
				<path id="&lt;Path&gt;" class="s30" d="m690 696.2h-12v12h12z"/>
				<path id="&lt;Path&gt;" class="s30" d="m690 793.9h-12v11.9h12z"/>
				<path id="&lt;Path&gt;" class="s30" d="m631.7 464h-12v12h12z"/>
				<path id="&lt;Path&gt;" class="s30" d="m631.7 428.6h-12v11.9h12z"/>
				<path id="&lt;Path&gt;" class="s30" d="m301.5 196.7h-12v12h12z"/>
				<path id="&lt;Path&gt;" class="s30" d="m301.5 237.2h-12v12h12z"/>
				<path id="&lt;Path&gt;" class="s30" d="m73.7 312.3h-12v12h12z"/>
				<path id="&lt;Path&gt;" class="s30" d="m73.7 355.3h-12v12h12z"/>
				<path id="&lt;Path&gt;" class="s30" d="m73.7 472.8h-12v12h12z"/>
				<path id="&lt;Path&gt;" class="s29" d="m313.5 408.9h-12v12h12z"/>
				<path id="&lt;Path&gt;" class="s29" d="m313.5 442.9h-12v12h12z"/>
				<path id="&lt;Path&gt;" class="s29" d="m313.5 523.4h-12v12h12z"/>
				<path id="&lt;Path&gt;" class="s29" d="m593.7 283.4h-12v12h12z"/>
				<path id="&lt;Path&gt;" class="s29" d="m1077.2 202.7h-12v12h12z"/>
				<path id="&lt;Path&gt;" class="s29" d="m538.3 770.5h-11.9v12h11.9z"/>
				<path id="&lt;Path&gt;" class="s29" d="m858.9 604.7h-12v12h12z"/>
				<path id="&lt;Path&gt;" class="s29" d="m858.9 639.4h-12v12h12z"/>
				<path id="&lt;Path&gt;" class="s29" d="m1175.2 741.5h-12v12h12z"/>
				<path id="&lt;Path&gt;" class="s29" d="m1175.2 776.6h-12v12h12z"/>
				<path id="&lt;Path&gt;" class="s29" d="m538.3 830.5h-11.9v12h11.9z"/>
				<path id="&lt;Path&gt;" class="s31" d="m732.3 518.9h-34.4v34.5h34.4z"/>
				<path id="&lt;Path&gt;" class="s32" d="m384 631.8h-34.5v34.4h34.5z"/>
				<path id="&lt;Path&gt;" class="s32" d="m678 938.4h-34.4v34.4h34.4z"/>
				<path id="&lt;Path&gt;" class="s32" d="m85 865h-34.5v34.5h34.5z"/>
				<path id="&lt;Path&gt;" class="s32" d="m732.3 290.1h-34.4v34.5h34.4z"/>
				<path id="&lt;Path&gt;" class="s32" d="m1178.8 196.7h-34.5v34.5h34.5z"/>
				<path id="&lt;Path&gt;" class="s31" d="m412 307.4h-34.5v34.4h34.5z"/>
				<path id="&lt;Path&gt;" class="s31" d="m109.9 208.7h-34.5v34.5h34.5z"/>
				<path id="&lt;Path&gt;" class="s31" d="m900.9 414.9h-34.5v34.4h34.5z"/>
				<path id="&lt;Path&gt;" class="s31" d="m140.4 628.1h-34.5v34.5h34.5z"/>
				<path id="&lt;Path&gt;" class="s31" d="m1005.3 645.4h-34.5v34.4h34.5z"/>
				<path id="&lt;Path&gt;" class="s31" d="m846.9 794.4h-34.5v34.5h34.5z"/>
				<path id="&lt;Path&gt;" class="s31" d="m1328.4 765.4h-34.4v34.5h34.4z"/>
				<path id="&lt;Path&gt;" class="s33" d="m895.6 277.4h-23.9v24h23.9z"/>
				<path id="&lt;Path&gt;" class="s33" d="m895.6 339.8h-23.9v24h23.9z"/>
				<path id="&lt;Path&gt;" class="s34" d="m878.1 728c0-26.8-21.7-48.5-48.5-48.5-26.7 0-48.4 21.7-48.4 48.5 0 26.8 21.7 48.5 48.4 48.5 26.8 0 48.5-21.7 48.5-48.5z"/>
				<path id="&lt;Path&gt;" class="s35" d="m672.8 645.4c0-47-38.1-85.1-85.1-85.1-46.9 0-85 38.1-85 85.1 0 46.9 38.1 85 85 85 47 0 85.1-38.1 85.1-85z"/>
				<path id="&lt;Path&gt;" class="s36" d="m1468.1 747.5c0-46.9-38-85-85-85-47 0-85.1 38.1-85.1 85 0 47 38.1 85.1 85.1 85.1 47 0 85-38.1 85-85.1z"/>
				<path id="&lt;Path&gt;" class="s37" d="m332.1 662.5c0-47-38-85.1-85-85.1-47 0-85.1 38.1-85.1 85.1 0 46.9 38.1 85 85.1 85 47 0 85-38.1 85-85z"/>
				<path id="&lt;Path&gt;" class="s38" d="m1266.1 883.3c0-26.7-21.7-48.4-48.5-48.4-26.7 0-48.4 21.7-48.4 48.4 0 26.8 21.7 48.5 48.4 48.5 26.8 0 48.5-21.7 48.5-48.5z"/>
				<path id="&lt;Path&gt;" class="s39" d="m841.6 716h-23.9v24h23.9z"/>
				<path id="&lt;Path&gt;" class="s39" d="m1229.6 870.3h-23.9v24h23.9z"/>
				<path id="&lt;Path&gt;" class="s33" d="m406.8 141.1h-24v24h24z"/>
				<path id="&lt;Path&gt;" class="s40" d="m627.3 33.8h-24v23.9h24z"/>
				<path id="&lt;Path&gt;" class="s40" d="m1004.4 45.7h-24v24h24z"/>
				<path id="&lt;Path&gt;" class="s40" d="m1427.7 22.6h-24v24h24z"/>
				<path id="&lt;Path&gt;" class="s33" d="m104.7 105.6h-24v24h24z"/>
				<path id="&lt;Path&gt;" class="s33" d="m1403.7 398.6h-24v24h24z"/>
				<path id="&lt;Path&gt;" class="s33" d="m495.1 520.8h-23.9v24h23.9z"/>
				<path id="&lt;Path&gt;" class="s41" d="m595.9 381.6h-52.9v53h52.9z"/>
				<path id="&lt;Path&gt;" class="s41" d="m1153.3 452.3h-52.9v53h52.9z"/>
				<path id="&lt;Path&gt;" class="s41" d="m1153.3 538.9h-52.9v53h52.9z"/>
				<path id="&lt;Path&gt;" class="s41" d="m976 828.1h-52.9v52.9h52.9z"/>
				<path id="&lt;Path&gt;" class="s41" d="m295.5 590.3h-52.9v52.9h52.9z"/>
				<path id="&lt;Path&gt;" class="s41" d="m1018.9 91.1h-53v53h53z"/>
				<path id="&lt;Path&gt;" class="s41" d="m1456.6 526.9h-52.9v52.9h52.9z"/>
				<path id="&lt;Path&gt;" class="s41" d="m322 49.2h-52.9v52.9h52.9z"/>
				<path id="&lt;Path&gt;" class="s33" d="m307.5 828.9h-24v23.9h24z"/>
				<path id="&lt;Path&gt;" class="s42" d="m344 894.3c0-26.8-21.7-48.5-48.5-48.5-26.7 0-48.4 21.7-48.4 48.5 0 26.7 21.7 48.4 48.4 48.4 26.8 0 48.5-21.7 48.5-48.4z"/>
				<path id="&lt;Path&gt;" class="s39" d="m307.5 882.3h-24v24h24z"/>
				<path id="&lt;Path&gt;" class="s27" d="m672.8 894.3h-24v23.9h24z"/>
				<path id="&lt;Path&gt;" class="s28" d="m1000 529.4h-24v24h24z"/>
				<path id="&lt;Path&gt;" class="s28" d="m1000 466.8h-24v24h24z"/>
				<path id="&lt;Path&gt;" class="s28" d="m793.2 111.2h-24v23.9h24z"/>
				<path id="&lt;Path&gt;" class="s28" d="m1323.2 604.7h-24v24h24z"/>
				<path id="&lt;Path&gt;" class="s28" d="m1241.6 361.3h-24v24h24z"/>
				<path id="&lt;Path&gt;" class="s27" d="m1323.2 662.6h-24v24h24z"/>
				<path id="&lt;Path&gt;" class="s28" d="m406.8 202h-24v23.9h24z"/>
				<path id="&lt;Path&gt;" class="s43" d="m207 33.8h-24v23.9h24z"/>
				<path id="&lt;Path&gt;" class="s43" d="m526.7 93.6h-24v24h24z"/>
				<path id="&lt;Path&gt;" class="s43" d="m878.4 33.8h-24v23.9h24z"/>
				<path id="&lt;Path&gt;" class="s43" d="m1361.6 83.1h-23.9v24h23.9z"/>
				<path id="&lt;Path&gt;" class="s28" d="m1173.5 88h-23.9v24h23.9z"/>
				<path id="&lt;Path&gt;" class="s28" d="m1173.5 129.1h-23.9v24h23.9z"/>
			</g>
		</g>
	</g>
</svg>